<?xml version="1.0" encoding="UTF-8" standalone="no"?>
<!-- Created with Inkscape (http://www.inkscape.org/) by Toomai Glittershine for SmashWiki -->
<svg id="svg2" xmlns:rdf="http://www.w3.org/1999/02/22-rdf-syntax-ns#" xmlns="http://www.w3.org/2000/svg" version="1.1" xmlns:cc="http://creativecommons.org/ns#" xmlns:dc="http://purl.org/dc/elements/1.1/"
		height="256" width="256"
		viewBox="0 0 256 256">
	<metadata id="metadata7">
		<rdf:RDF>
			<cc:Work rdf:about="">
				<dc:format>image/svg+xml</dc:format>
				<dc:type rdf:resource="http://purl.org/dc/dcmitype/StillImage"/>
				<dc:title/>
			</cc:Work>
		</rdf:RDF>
	</metadata>
	<path id="mainsymbolpath" style="opacity:0.5;fill:#000000;fill-opacity:1;stroke:none"
		d="m 223.28656,142.52773 c 0,0 -3.5579,-16.08953 -20.75366,-29.56747 -15.21313,-11.89201 -33.11678,-10.84713 -33.11678,-10.84713 0,0 4.86657,-9.352802 17.58753,-15.71042 11.50922,-5.754818 26.56287,-6.737129 26.56287,-6.737129 0,0 -9.13279,-13.213343 -29.93634,-20.570447 -24.68781,-8.698478 -45.17238,-8.982293 -71.07642,-0.736119 -26.622985,8.468235 -46.73622,30.285587 -46.73622,30.285587 0,0 -26.928066,-7.849895 -31.796269,-1.491459 -5.607593,7.348107 8.61137,33.298357 8.61137,33.298357 0,0 -3.963594,8.247 -2.998869,22.44305 1.074327,15.782 10.459849,27.30677 10.459849,27.30677 0,0 0.03517,0.099 0.09529,0.24128 -4.922594,1.12176 -8.355365,3.60126 -8.355365,6.47662 0,3.94437 6.396878,7.13873 14.276218,7.13873 a 29.618582,29.618582 0 0 0 3.185761,-0.18649 c 0.05276,0.0561 0.10183,0.11083 0.154994,0.16686 7.483881,8.23063 19.265062,18.41198 36.655065,19.46831 20.955276,1.24363 35.127206,-7.0557 44.039156,-9.46282 10.76043,-2.91585 25.20146,-3.50596 34.13959,-2.71014 27.02294,2.43369 38.52357,10.28563 38.52357,10.28563 0,0 1.69062,-12.91276 -10.27622,-30.10606 -8.39053,-12.03922 -26.75466,-17.03012 -26.75466,-17.03012 0,0 9.29718,-7.71821 20.57044,-10.46925 13.84681,-3.37061 26.9391,-1.48614 26.9391,-1.48614 z"
	/>
</svg>